<svg xmlns="http://www.w3.org/2000/svg" xmlns:xlink="http://www.w3.org/1999/xlink" version="1.1" x="0px" y="0px" viewBox="0 0 100 125" style="enable-background:new 0 0 100 100;" xml:space="preserve"><path d="M92.1,26.4c0-2.3-1.8-4.1-4.1-4.1H68.9l-9.2-9.2c-1.5-1.5-3.9-1.6-5.4-0.2c-0.8,0.7-1.3,1.7-1.3,2.8s0.4,2.1,1.1,2.9  l3.9,3.9L55.5,25c-0.8-0.7-1.7-1.1-2.8-1.1s-2.2,0.4-3,1.2l-0.4,0.4l0,0l0,0L47,28l0,0l0,0l-7.2,7.2l0,0l0,0L39,36  c-1.7,1.7-1.7,4.3,0,6l3.8,3.8c0.8,0.8,1.9,1.2,3,1.2s2.2-0.4,3-1.2L59.5,35c0.8-0.8,1.2-1.9,1.2-3c0-1-0.4-2-1.1-2.8l2.5-2.5  l7.5,7.5l-2.5,2.5c-0.8-0.7-1.7-1.1-2.8-1.1c-1.1,0-2.2,0.4-3,1.2L50.7,47.6c-1.7,1.7-1.7,4.3,0,6l3.8,3.8c0.8,0.8,1.9,1.2,3,1.2  s2.2-0.4,3-1.2l10.7-10.7c0.8-0.8,1.2-1.9,1.2-3c0-1-0.4-2-1.1-2.8l2.5-2.5l7.2,7.2v0.1v0.1l-21,21c-0.1,0.1-0.2,0.1-0.3,0L33,40  c-1.5-1.5-3.9-1.6-5.4-0.2c-0.8,0.7-1.3,1.7-1.3,2.8s0.4,2.1,1.1,2.9l4.9,4.9l-5.8,5.8c-0.7,0.7-1.3,1.6-1.7,2.6l-1.1,2.9  c-0.5,1.3-0.2,2.9,0.8,3.9l0.8,0.8l-4.5,4.5c-1.3,1.3-2.5,2.7-3.5,4.1L7.9,88l13.2-9.4c1.5-1,2.9-2.2,4.1-3.5l4.5-4.5l0.8,0.8  c0.7,0.7,1.6,1.1,2.6,1.1c0.4,0,0.9-0.1,1.3-0.2l2.9-1.1c1-0.4,1.8-0.9,2.6-1.7l5.8-5.8l9.4,9.4c1.3,1.3,3,2,4.8,2s3.5-0.7,4.8-2  l22.7-22.7c2.7-2.7,2.7-7,0-9.6L77.1,30.5H88C90.3,30.5,92.1,28.7,92.1,26.4z M23.8,73.7c-1.2,1.2-2.5,2.3-3.9,3.3l-3.3,2.4L19,76  c1-1.4,2.1-2.7,3.3-3.9l3.9-3.9l1.5,1.5L23.8,73.7z M38.4,68.1c-0.5,0.5-1.2,0.9-1.9,1.2l-2.9,1.1c-0.6,0.2-1.3,0.1-1.8-0.4l-6-6  c-0.5-0.5-0.6-1.2-0.4-1.8l1.1-2.9c0.3-0.7,0.7-1.3,1.2-1.9l5.8-5.8l10.6,10.6L38.4,68.1z M58.1,33.6L47.3,44.3  c-0.9,0.9-2.3,0.9-3.2,0l-3.8-3.8c-0.4-0.4-0.7-1-0.7-1.6s0.2-1.2,0.7-1.6l0.1-0.1l3,3c0.2,0.2,0.5,0.3,0.7,0.3s0.5-0.1,0.7-0.3  c0.4-0.4,0.4-1,0-1.4l-3-3l1-1l3,3c0.2,0.2,0.5,0.3,0.7,0.3s0.5-0.1,0.7-0.3c0.4-0.4,0.4-1,0-1.4l-3-3l1-1l3,3  c0.2,0.2,0.5,0.3,0.7,0.3s0.5-0.1,0.7-0.3c0.4-0.4,0.4-1,0-1.4l-3-3l1-1l3,3c0.2,0.2,0.5,0.3,0.7,0.3s0.5-0.1,0.7-0.3  c0.4-0.4,0.4-1,0-1.4l-3-3l1-1l3,3c0.2,0.2,0.5,0.3,0.7,0.3s0.5-0.1,0.7-0.3c0.4-0.4,0.4-1,0-1.4l-3-3c0.4-0.2,0.8-0.4,1.2-0.4  c0.6,0,1.2,0.2,1.6,0.7l3.8,3.8c0.4,0.4,0.7,1,0.7,1.6C58.7,32.6,58.5,33.2,58.1,33.6z M58.3,27.8L57,26.5l2.5-2.5l0.7,0.7l0.6,0.6  L58.3,27.8z M69.7,45.3L59,56c-0.9,0.9-2.3,0.9-3.2,0L52,52.2c-0.9-0.9-0.9-2.3,0-3.2l0.1-0.1l3,3c0.2,0.2,0.5,0.3,0.7,0.3  s0.5-0.1,0.7-0.3c0.4-0.4,0.4-1,0-1.4l-3-3l1-1l3,3c0.2,0.2,0.5,0.3,0.7,0.3s0.5-0.1,0.7-0.3c0.4-0.4,0.4-1,0-1.4l-3-3l1-1l3,3  c0.2,0.2,0.5,0.3,0.7,0.3s0.5-0.1,0.7-0.3c0.4-0.4,0.4-1,0-1.4l-3-3l1-1l3,3c0.2,0.2,0.5,0.3,0.7,0.3s0.5-0.1,0.7-0.3  c0.4-0.4,0.4-1,0-1.4l-3-3l1-1l3,3c0.2,0.2,0.5,0.3,0.7,0.3s0.5-0.1,0.7-0.3c0.4-0.4,0.4-1,0-1.4l-3-3c0.4-0.2,0.8-0.4,1.2-0.4  c0.6,0,1.2,0.2,1.6,0.7l3.8,3.8c0.4,0.4,0.7,1,0.7,1.6C70.4,44.3,70.1,44.8,69.7,45.3z M69.9,39.5l-1.3-1.3l2.5-2.5l1.3,1.3  L69.9,39.5z M86,49.1L63.3,71.7c-0.9,0.9-2.1,1.4-3.4,1.4s-2.5-0.5-3.4-1.4L28.8,44c-0.4-0.4-0.6-0.9-0.6-1.4s0.2-1,0.6-1.4  c0.3-0.3,0.8-0.5,1.2-0.5c0.5,0,1,0.2,1.4,0.6l26.8,26.8c0.9,0.9,2.2,0.9,3.1,0l21-21c0.4-0.4,0.6-0.9,0.6-1.5s-0.2-1.1-0.6-1.5  l-7.2-7.2l0,0l-2.6-2.6l-9-9l0,0l-1.1-1.1l-7-7c-0.4-0.4-0.6-0.9-0.6-1.4s0.2-1,0.6-1.4c0.7-0.7,1.9-0.6,2.7,0.2L86,42.3  C87.8,44.1,87.8,47.2,86,49.1z M70.9,24.3H88c1.2,0,2.1,0.9,2.1,2.1s-0.9,2.1-2.1,2.1H75.1L70.9,24.3z"/><text x="0" y="115" fill="#000000" font-size="5px" font-weight="bold" font-family="'Helvetica Neue', Helvetica, Arial-Unicode, Arial, Sans-serif">Created by Artem  Kovyazin</text><text x="0" y="120" fill="#000000" font-size="5px" font-weight="bold" font-family="'Helvetica Neue', Helvetica, Arial-Unicode, Arial, Sans-serif">from the Noun Project</text></svg>